<svg width="27" height="27" fill="#0984e3" viewBox="0 0 24 24" xmlns="http://www.w3.org/2000/svg">
  <path d="M8.875 15.125A.625.625 0 0 1 9.5 14.5H12a.624.624 0 1 1 0 1.25H9.5a.625.625 0 0 1-.625-.625Zm0-2.5A.625.625 0 0 1 9.5 12h6.25a.624.624 0 1 1 0 1.25H9.5a.625.625 0 0 1-.625-.625Zm0-2.5A.625.625 0 0 1 9.5 9.5h6.25a.625.625 0 1 1 0 1.25H9.5a.625.625 0 0 1-.625-.625Zm0-2.5A.625.625 0 0 1 9.5 7h6.25a.625.625 0 1 1 0 1.25H9.5a.625.625 0 0 1-.625-.625Z"></path>
  <path d="M6.375 2h12.5a2.5 2.5 0 0 1 2.5 2.5v15a2.5 2.5 0 0 1-2.5 2.5h-12.5a2.5 2.5 0 0 1-2.5-2.5v-1.25h1.25v1.25a1.25 1.25 0 0 0 1.25 1.25h12.5a1.25 1.25 0 0 0 1.25-1.25v-15a1.25 1.25 0 0 0-1.25-1.25h-12.5a1.25 1.25 0 0 0-1.25 1.25v1.25h-1.25V4.5a2.5 2.5 0 0 1 2.5-2.5Z"></path>
  <path d="M3.875 8.25v-.625a.625.625 0 0 1 1.25 0v.625h.625a.625.625 0 0 1 0 1.25h-2.5a.625.625 0 0 1 0-1.25h.625Zm0 3.75v-.625a.625.625 0 1 1 1.25 0V12h.625a.625.625 0 1 1 0 1.25h-2.5a.625.625 0 1 1 0-1.25h.625Zm0 3.75v-.625a.625.625 0 1 1 1.25 0v.625h.625a.625.625 0 1 1 0 1.25h-2.5a.625.625 0 1 1 0-1.25h.625Z"></path>
</svg>